<?xml version="1.0" encoding="utf-8"?>
<svg viewBox="0 0 500 500" xmlns="http://www.w3.org/2000/svg">
  <circle style="fill: rgb(255, 255, 255);" cx="250" cy="250" r="173.728"/>
  <g transform="matrix(0.700022, 0, 0, 0.698947, 164.707219, -357.659099)">
    <path d="M 371.835 869.392 C 371.835 1061.845 163.508 1182.128 -3.153 1085.902 C -80.501 1041.243 -128.149 958.71 -128.149 869.392 C -128.149 676.939 80.178 556.656 246.839 652.883 C 324.187 697.542 371.835 780.075 371.835 869.392 Z" fill="none" style="stroke: rgb(0, 122, 255); paint-order: fill; stroke-width: 52.2888px;"/>
    <path d="M 121.843 639.389 C 43.622 639.389 -25.477 678.441 -67.037 738.108 L 1.807 857.388 L 127.647 639.448 C 125.716 639.4 123.778 639.385 121.835 639.385 Z M 141.093 640.201 L 72.218 759.481 L 323.908 759.481 C 287.815 693.261 220.128 646.751 141.098 640.201 Z M -74.407 749.361 C -95.829 784.304 -108.157 825.402 -108.157 869.391 C -108.157 904.42 -100.32 937.612 -86.313 967.329 L 51.437 967.329 L -74.403 749.359 Z M 192.223 771.486 L 318.063 989.426 C 339.485 954.483 351.844 913.385 351.844 869.396 C 351.844 834.381 343.996 801.196 330 771.49 L 192.22 771.49 Z M 241.817 881.426 L 116.007 1099.336 C 117.949 1099.385 119.897 1099.399 121.851 1099.399 C 200.06 1099.399 269.141 1060.363 310.691 1000.711 L 241.816 881.431 Z M -80.213 979.332 C -44.115 1045.532 23.547 1092.032 102.567 1098.582 L 171.411 979.332 L -80.219 979.332 Z" fill-rule="evenodd" style="fill: rgb(0, 122, 255);"/>
    <g style="">
      <path d="M 83.823 938.005 L 66.493 938.005 L 66.493 840.295 L 83.823 840.295 L 83.823 938.005 ZM 135.663 938.005 L 108.623 938.005 L 108.623 840.295 L 134.773 840.295 C 149.713 840.295 161.363 844.328 169.723 852.395 C 178.089 860.468 182.273 872.572 182.273 888.705 C 182.273 896.772 181.203 903.892 179.063 910.065 C 176.923 916.238 173.836 921.395 169.803 925.535 C 165.769 929.668 160.889 932.778 155.163 934.865 C 149.436 936.958 142.936 938.005 135.663 938.005 Z M 125.953 854.345 L 125.953 923.965 L 133.573 923.965 C 143.533 923.965 151.176 921.102 156.503 915.375 C 161.836 909.648 164.503 900.758 164.503 888.705 C 164.503 876.752 161.813 868.035 156.433 862.555 C 151.053 857.082 143.433 854.345 133.573 854.345 L 125.953 854.345 Z" transform="matrix(1, 0, 0, 1, 0, 0)" style="fill: rgba(0, 123, 255, 0.69); line-height: 261.9px; white-space: pre;"/>
      <path d="M 73.129 833.975 C 71.429 833.975 69.786 833.655 68.199 833.015 C 66.619 832.368 65.226 831.455 64.019 830.275 L 66.639 827.225 C 67.539 828.072 68.569 828.758 69.729 829.285 C 70.889 829.812 72.046 830.075 73.199 830.075 C 74.646 830.075 75.739 829.782 76.479 829.195 C 77.226 828.602 77.599 827.815 77.599 826.835 C 77.599 826.322 77.502 825.885 77.309 825.525 C 77.122 825.165 76.852 824.848 76.499 824.575 C 76.152 824.308 75.742 824.058 75.269 823.825 C 74.789 823.592 74.269 823.362 73.709 823.135 L 70.229 821.625 C 69.616 821.372 69.006 821.052 68.399 820.665 C 67.792 820.278 67.246 819.815 66.759 819.275 C 66.266 818.735 65.872 818.105 65.579 817.385 C 65.286 816.658 65.139 815.832 65.139 814.905 C 65.139 813.905 65.349 812.975 65.769 812.115 C 66.196 811.248 66.782 810.495 67.529 809.855 C 68.276 809.208 69.169 808.705 70.209 808.345 C 71.256 807.985 72.396 807.805 73.629 807.805 C 75.096 807.805 76.509 808.095 77.869 808.675 C 79.236 809.255 80.409 810.035 81.389 811.015 L 79.109 813.865 C 78.282 813.198 77.432 812.672 76.559 812.285 C 75.686 811.898 74.709 811.705 73.629 811.705 C 72.416 811.705 71.449 811.968 70.729 812.495 C 70.009 813.022 69.649 813.748 69.649 814.675 C 69.649 815.168 69.759 815.588 69.979 815.935 C 70.199 816.282 70.496 816.588 70.869 816.855 C 71.242 817.128 71.672 817.375 72.159 817.595 C 72.646 817.815 73.149 818.025 73.669 818.225 L 77.099 819.655 C 77.846 819.968 78.529 820.328 79.149 820.735 C 79.762 821.148 80.296 821.625 80.749 822.165 C 81.202 822.705 81.556 823.328 81.809 824.035 C 82.069 824.748 82.199 825.565 82.199 826.485 C 82.199 827.518 81.992 828.485 81.579 829.385 C 81.166 830.285 80.566 831.075 79.779 831.755 C 78.999 832.442 78.049 832.982 76.929 833.375 C 75.809 833.775 74.542 833.975 73.129 833.975 ZM 90.851 833.515 L 86.791 833.515 L 86.791 808.275 L 91.851 808.275 L 96.331 820.625 C 96.611 821.418 96.881 822.235 97.141 823.075 C 97.394 823.908 97.664 824.738 97.951 825.565 L 98.101 825.565 C 98.388 824.738 98.651 823.908 98.891 823.075 C 99.138 822.235 99.404 821.418 99.691 820.625 L 104.051 808.275 L 109.141 808.275 L 109.141 833.515 L 105.011 833.515 L 105.011 821.975 C 105.011 821.382 105.031 820.738 105.071 820.045 C 105.111 819.352 105.158 818.648 105.211 817.935 C 105.258 817.228 105.321 816.535 105.401 815.855 C 105.474 815.175 105.538 814.538 105.591 813.945 L 105.441 813.945 L 103.391 819.815 L 99.261 831.165 L 96.601 831.165 L 92.431 819.815 L 90.421 813.945 L 90.271 813.945 C 90.324 814.538 90.381 815.175 90.441 815.855 C 90.508 816.535 90.571 817.228 90.631 817.935 C 90.698 818.648 90.751 819.352 90.791 820.045 C 90.831 820.738 90.851 821.382 90.851 821.975 L 90.851 833.515 ZM 120.735 820.085 L 119.845 823.175 L 126.285 823.175 L 125.405 820.085 C 124.992 818.745 124.598 817.368 124.225 815.955 C 123.852 814.535 123.485 813.132 123.125 811.745 L 122.975 811.745 C 122.608 813.158 122.245 814.568 121.885 815.975 C 121.525 817.375 121.142 818.745 120.735 820.085 Z M 116.835 833.515 L 112.275 833.515 L 120.495 808.275 L 125.745 808.275 L 133.975 833.515 L 129.265 833.515 L 127.295 826.685 L 118.805 826.685 L 116.835 833.515 ZM 141.579 833.515 L 137.099 833.515 L 137.099 808.275 L 145.629 808.275 C 146.942 808.275 148.166 808.402 149.299 808.655 C 150.432 808.915 151.412 809.335 152.239 809.915 C 153.059 810.488 153.706 811.252 154.179 812.205 C 154.659 813.158 154.899 814.342 154.899 815.755 C 154.899 817.688 154.442 819.245 153.529 820.425 C 152.616 821.612 151.399 822.462 149.879 822.975 L 155.899 833.515 L 150.879 833.515 L 145.439 823.635 L 141.579 823.635 L 141.579 833.515 Z M 141.579 811.865 L 141.579 820.085 L 145.169 820.085 C 146.896 820.085 148.216 819.725 149.129 819.005 C 150.042 818.285 150.499 817.202 150.499 815.755 C 150.499 814.288 150.042 813.272 149.129 812.705 C 148.216 812.145 146.896 811.865 145.169 811.865 L 141.579 811.865 ZM 168.918 833.515 L 164.438 833.515 L 164.438 812.055 L 157.138 812.055 L 157.138 808.275 L 176.208 808.275 L 176.208 812.055 L 168.918 812.055 L 168.918 833.515 Z" transform="matrix(1, 0, 0, 1, 0, 0)" style="fill: rgba(0, 123, 255, 0.69); line-height: 61.8073px; white-space: pre;"/>
    </g>
  </g>
  <circle style="fill: rgb(216, 216, 216);" cx="111.693" cy="160.047" r="0"/>
</svg>